<svg width="13" height="12" viewBox="0 0 13 12" fill="none" xmlns="http://www.w3.org/2000/svg">
<g clip-path="url(#clip0_58_86)">
<path d="M7.84135 2.59261C8.32488 2.68695 8.76926 2.92342 9.11761 3.27178C9.46596 3.62013 9.70244 4.06451 9.79678 4.54803M7.84135 0.612427C8.84594 0.724028 9.78272 1.17389 10.4979 1.88816C11.2131 2.60243 11.6641 3.53864 11.777 4.54308M11.2819 8.49354V9.97868C11.2825 10.1165 11.2542 10.253 11.199 10.3793C11.1438 10.5057 11.0628 10.6191 10.9612 10.7123C10.8596 10.8055 10.7396 10.8764 10.609 10.9206C10.4784 10.9648 10.34 10.9812 10.2027 10.9688C8.67938 10.8032 7.21611 10.2827 5.93048 9.44898C4.73436 8.68892 3.72027 7.67482 2.96021 6.47871C2.12357 5.18724 1.60291 3.71685 1.44042 2.18667C1.42805 2.04977 1.44432 1.9118 1.48819 1.78154C1.53207 1.65127 1.60258 1.53157 1.69525 1.43005C1.78792 1.32854 1.90071 1.24743 2.02645 1.19189C2.15218 1.13635 2.28811 1.1076 2.42556 1.10747H3.91069C4.15094 1.10511 4.38385 1.19018 4.56602 1.34684C4.74818 1.5035 4.86716 1.72105 4.90078 1.95895C4.96347 2.43423 5.07972 2.90088 5.24732 3.35003C5.31392 3.52721 5.32834 3.71978 5.28885 3.90491C5.24937 4.09004 5.15765 4.25997 5.02455 4.39457L4.39584 5.02328C5.10056 6.26265 6.12674 7.28882 7.36611 7.99355L7.99482 7.36484C8.12941 7.23174 8.29934 7.14002 8.48447 7.10053C8.6696 7.06105 8.86217 7.07547 9.03936 7.14207C9.4885 7.30967 9.95516 7.42592 10.4304 7.4886C10.6709 7.52253 10.8905 7.64365 11.0475 7.82894C11.2045 8.01423 11.2879 8.25076 11.2819 8.49354Z" stroke="white" stroke-width="0.99009" stroke-linecap="round" stroke-linejoin="round"/>
</g>
<defs>
<clipPath id="clip0_58_86">
<rect width="11.8811" height="11.8811" fill="white" transform="translate(0.390991 0.117432)"/>
</clipPath>
</defs>
</svg>
